Coordinates
version=1
nRows=16
nColumns=38
inDegrees=no

Units are S.I. units (second, meters, Newtons, ...)
If the header above contains a line with 'inDegrees', this indicates whether rotational values are in degrees (yes) or radians (no).

endheader
time	pelvis_tilt	pelvis_list	pelvis_rotation	pelvis_tx	pelvis_ty	pelvis_tz	hip_flexion_r	hip_adduction_r	hip_rotation_r	knee_angle_r	ankle_angle_r	subtalar_angle_r	mtp_angle_r	hip_flexion_l	hip_adduction_l	hip_rotation_l	knee_angle_l	ankle_angle_l	subtalar_angle_l	mtp_angle_l	lumbar_extension	lumbar_bending	lumbar_rotation	arm_flex_r	arm_add_r	arm_rot_r	elbow_flex_r	pro_sup_r	wrist_flex_r	wrist_dev_r	arm_flex_l	arm_add_l	arm_rot_l	elbow_flex_l	pro_sup_l	wrist_flex_l	wrist_dev_l
22.14	1.52062	1.53175	-2.92516	0.826543	-0.80276	1.07541	-0.0119746	-0.00652901	-0.0519063	0.108685	-0.31129	0	0	0.0584655	-0.0608718	-0.23303	0.288576	-0.321536	0	0	-0.41629	-0.0269428	-0.0769884	-0.0701194	-0.579373	0.527826	1.32071	1.10493	0	0	-0.38472	-0.503775	0.0868005	1.44661	1.5708	0	0
22.15	1.5384	1.53227	-2.94336	0.827558	-0.80417	1.0753	-0.0117014	-0.00742929	-0.0530894	0.110784	-0.3104	0	0	0.0540919	-0.0592122	-0.231874	0.282704	-0.319916	0	0	-0.412605	-0.026456	-0.0777509	-0.070909	-0.582875	0.525116	1.32731	1.10373	0	0	-0.387123	-0.503216	0.083373	1.45386	1.5708	0	0
22.16	2.17697	1.54668	2.70608	0.824393	-0.804715	1.07266	0.00885596	0.0172551	-0.0353137	0.115159	-0.307612	0	0	0.0961384	-0.100278	-0.308196	0.342608	-0.30928	0	0	-0.391261	-0.016095	-0.0776133	-0.0697976	-0.574771	0.52397	1.3275	1.10382	0	0	-0.393958	-0.512014	0.0754309	1.46493	1.5708	0	0
22.17	1.40373	1.53306	-2.80842	0.829858	-0.806946	1.07555	-0.0200957	-0.0078242	-0.0570265	0.111221	-0.3087	0	0	0.030843	-0.0526675	-0.209337	0.249039	-0.324604	0	0	-0.416066	-0.0244256	-0.0849459	-0.0627037	-0.59348	0.528825	1.34416	1.0849	0	0	-0.398854	-0.497652	0.063886	1.47615	1.5708	0	0
22.18	1.36046	1.53497	-2.76541	0.83073	-0.80845	1.07535	-0.0223772	-0.00594225	-0.0568983	0.112148	-0.307053	0	0	0.022642	-0.0519858	-0.199577	0.237645	-0.322328	0	0	-0.414609	-0.0224762	-0.0860627	-0.0603061	-0.598295	0.529605	1.35107	1.07996	0	0	-0.402587	-0.496645	0.0578155	1.48483	1.5708	0	0
22.19	1.34438	1.53727	-2.74894	0.831585	-0.809825	1.07502	-0.0232666	-0.00388331	-0.0570074	0.113221	-0.305468	0	0	0.0179248	-0.0524916	-0.194627	0.231085	-0.319416	0	0	-0.41201	-0.0204723	-0.0873032	-0.0576936	-0.602893	0.530891	1.35689	1.0756	0	0	-0.40522	-0.496414	0.0529326	1.49216	1.5708	0	0
22.2	1.35573	1.53967	-2.75929	0.832414	-0.811043	1.07469	-0.0231236	-0.00197098	-0.0571538	0.113866	-0.305795	0	0	0.0164232	-0.0538111	-0.194419	0.22847	-0.31929	0	0	-0.408784	-0.0185703	-0.0870053	-0.0581575	-0.606169	0.52736	1.36208	1.08014	0	0	-0.404116	-0.498012	0.0524096	1.49696	1.5708	0	0
22.21	1.34192	1.54747	-2.74455	0.833453	-0.812415	1.0733	-0.0219148	0.00565208	-0.0566817	0.114201	-0.30267	0	0	0.0572668	-0.0899329	-0.29495	0.337465	-0.283623	0	0	-0.40301	-0.0112044	-0.0889305	-0.0516397	-0.615267	0.536298	1.3683	1.06598	0	0	-0.409738	-0.49587	0.0461313	1.50472	1.5708	0	0
22.22	1.17929	1.55609	-2.5828	0.834509	-0.814139	1.07167	-0.0230396	0.0150418	-0.054976	0.113359	-0.299163	0	0	0.0942154	-0.143277	-0.419181	0.458675	-0.257407	0	0	-0.397542	-0.00228631	-0.0879697	-0.0465226	-0.626266	0.545092	1.37531	1.05321	0	0	-0.414675	-0.493326	0.0424592	1.51152	1.5708	0	0
22.23	1.3452	1.54331	-2.74759	0.834785	-0.814357	1.07407	-0.0249164	0.000221427	-0.0559937	0.116816	-0.29877	0	0	0.0154671	-0.0587395	-0.208059	0.237045	-0.306834	0	0	-0.40347	-0.0173874	-0.0941679	-0.0348379	-0.620766	0.550709	1.36665	1.04881	0	0	-0.405516	-0.499696	0.0442601	1.50826	1.5708	0	0
22.24	0.987758	1.55508	-2.39502	0.835657	-0.815921	1.07157	-0.0261242	0.0145547	-0.0502405	0.117864	-0.290878	0	0	0.0908848	-0.150857	-0.443196	0.47393	-0.250506	0	0	-0.400982	-0.00427477	-0.0894195	-0.0262284	-0.636189	0.56445	1.37755	1.0251	0	0	-0.412924	-0.493852	0.036565	1.51909	1.5708	0	0
22.25	0.875267	1.55377	-2.28316	0.83626	-0.816762	1.07162	-0.0290826	0.0144832	-0.0477876	0.119165	-0.288783	0	0	0.0871766	-0.151954	-0.447432	0.475404	-0.249191	0	0	-0.404374	-0.00439772	-0.0888175	-0.0203317	-0.639032	0.567213	1.3798	1.01946	0	0	-0.408376	-0.495391	0.0360457	1.52235	1.5708	0	0
22.26	0.769582	1.5523	-2.17665	0.837018	-0.817728	1.07165	-0.0329475	0.0147808	-0.0444628	0.119868	-0.286641	0	0	0.0834041	-0.152842	-0.449895	0.47624	-0.247916	0	0	-0.407587	-0.00395692	-0.0894277	-0.0145481	-0.641165	0.570188	1.38194	1.01415	0	0	-0.404157	-0.496991	0.0346844	1.52685	1.5708	0	0
22.27	0.689465	1.55087	-2.09621	0.837726	-0.818586	1.07171	-0.0362141	0.0149589	-0.0412249	0.120549	-0.284823	0	0	0.0801066	-0.153643	-0.452523	0.477172	-0.246981	0	0	-0.410957	-0.00373005	-0.0898027	-0.00796271	-0.64299	0.573091	1.38427	1.00863	0	0	-0.399837	-0.498325	0.032588	1.53241	1.5708	0	0
22.28	0.646694	1.54957	-2.0533	0.838477	-0.81931	1.07178	-0.0386503	0.014437	-0.0390197	0.121459	-0.283013	0	0	0.0775762	-0.153988	-0.455826	0.478326	-0.246656	0	0	-0.414068	-0.00388425	-0.0905082	-0.000725714	-0.644619	0.57498	1.38705	1.00234	0	0	-0.395562	-0.499178	0.0299359	1.53838	1.5708	0	0
22.29	0.634889	1.54888	-2.03948	0.839515	-0.820113	1.0718	-0.0407008	0.0135442	-0.0399397	0.122048	-0.281117	0	0	0.0764199	-0.154031	-0.457697	0.479649	-0.246832	0	0	-0.41599	-0.00370225	-0.0929152	0.00619483	-0.645987	0.576099	1.38981	0.995539	0	0	-0.391356	-0.499748	0.0271948	1.54409	1.5708	0	0
